ply
format ascii 1.0
element vertex 1125
property float x
property float y
property float z
end_header
0 -31.89 -20.71
0 -31.85 -20.68
0 -31.67 -20.71
0 -31.64 -20.71
0 -31.6 -20.74
0 -31.57 -20.74
0 -29.37 -6.47
0 -29.33 -6.44
0 -29.28 -6.34
0 -29.24 -6.32
0 -29.2 -6.27
0 -29.16 -6.22
0 -29.12 -6.16
0 -29.08 -6.09
0 -28.54 -5.06
0 -28.5 -5.01
0 -28.46 -4.96
0 -28.42 -4.93
0 -28.38 -4.91
0 -28.04 -4.38
0 -27.98 -4.13
0 -27.83 -4.08
0 -27.79 -4.03
0 -27.75 -3.98
0 -27.72 -3.95
0 -27.67 -3.85
0 -27.63 -3.8
0 -27.59 -3.75
0 -27.55 -3.73
0 -27.52 -3.7
0 -27.47 -3.63
0 -27.43 -3.58
0 -27.39 -3.53
0 -27.35 -3.45
0 -27.31 -3.43
0 -27.27 -3.38
0 -27.23 -3.33
0 -27.19 -3.25
0 -27.15 -3.23
0 -27.11 -3.16
0 -27.07 -3.11
0 -27.03 -3.03
0 -26.99 -2.98
0 -26.95 -2.93
0 -26.91 -2.91
0 -26.87 -2.86
0 -26.83 -2.81
0 -26.79 -2.74
0 -26.74 -2.66
0 -26.7 -2.54
0 -26.66 -2.54
0 -26.63 -2.51
0 -26.59 -2.46
0 -26.55 -2.41
0 -26.51 -2.39
0 -26.47 -2.34
0 -26.43 -2.29
0 -26.39 -2.22
0 -26.35 -2.17
0 -26.31 -2.15
0 -26.27 -2.07
0 -26.23 -2.02
0 -26.19 -1.98
0 -26.15 -1.95
0 -26.12 -1.93
0 -26.07 -1.78
0 -26.03 -1.73
0 -25.99 -1.68
0 -25.95 -1.61
0 -25.91 -1.59
0 -25.87 -1.59
0 -25.84 -1.56
0 -25.8 -1.49
0 -25.75 -1.39
0 -25.71 -1.37
0 -25.68 -1.34
0 -25.64 -1.32
0 -25.61 -1.3
0 -25.57 -1.25
0 -25.52 -1.17
0 -25.49 -1.15
0 -25.44 -1.03
0 -25.4 -1
0 -25.36 -0.93
0 -25.32 -0.88
0 -25.29 -0.86
0 -25.25 -0.84
0 -25.21 -0.79
0 -25.18 -0.79
0 -25.14 -0.71
0 -25.1 -0.69
0 -25.06 -0.62
0 -25.02 -0.57
0 -24.98 -0.57
0 -24.95 -0.52
0 -24.91 -0.47
0 -24.87 -0.45
0 -24.82 -0.3
0 -24.78 -0.25
0 -24.74 -0.23
0 -24.71 -0.2
0 -24.67 -0.15
0 -24.63 -0.1
0 -24.59 -0.08
0 -24.56 -0.08
0 -24.51 0.07
0 -24.48 0.09
0 -24.44 0.12
0 -24.4 0.14
0 -24.36 0.19
0 -24.33 0.21
0 -24.29 0.24
0 -24.25 0.31
0 -24.21 0.39
0 -24.17 0.41
0 -24.14 0.43
0 -24.1 0.46
0 -24.06 0.51
0 -24.03 0.53
0 -23.99 0.55
0 -23.95 0.58
0 -23.91 0.7
0 -23.87 0.77
0 -23.83 0.8
0 -23.79 0.85
0 -23.76 0.87
0 -23.72 0.92
0 -23.68 0.94
0 -23.64 0.99
0 -23.6 1.04
0 -23.57 1.06
0 -23.53 1.09
0 -23.5 1.11
0 -23.46 1.13
0 -23.43 1.13
0 -23.39 1.2
0 -23.35 1.25
0 -23.31 1.32
0 -23.27 1.35
0 -23.24 1.37
0 -23.2 1.39
0 -23.16 1.42
0 -23.13 1.47
0 -23.09 1.51
0 -23.05 1.54
0 -23.01 1.61
0 -22.97 1.63
0 -22.94 1.66
0 -22.9 1.7
0 -22.86 1.75
0 -22.83 1.77
0 -22.79 1.8
0 -22.76 1.8
0 -22.72 1.85
0 -22.68 1.87
0 -22.65 1.89
0 -22.61 1.89
0 -22.58 1.92
0 -22.54 1.94
0 -22.51 1.96
0 -22.47 1.96
0 -22.44 1.99
0 -22.41 1.99
0 -22.37 1.99
0 -22.34 1.96
0 -22.31 1.99
0 -22.27 1.99
0 -22.24 1.99
0 -22.21 1.96
0 -22.17 2.01
0 -22.14 2.01
0 -22.1 2.01
0 -22.07 2.01
0 -22.04 1.98
0 -22.01 1.98
0 -21.97 2.01
0 -21.94 2.01
0 -21.91 1.94
0 -21.88 1.94
0 -21.84 1.94
0 -21.81 1.94
0 -21.78 1.94
0 -21.74 1.94
0 -21.71 1.94
0 -21.68 1.91
0 -21.65 1.91
0 -21.62 1.89
0 -21.58 1.89
0 -21.55 1.87
0 -21.52 1.87
0 -21.48 1.87
0 -21.45 1.86
0 -21.42 1.84
0 -21.39 1.82
0 -21.36 1.82
0 -21.32 1.82
0 -21.29 1.79
0 -21.26 1.79
0 -21.22 1.79
0 -21.19 1.79
0 -21.16 1.77
0 -21.13 1.77
0 -21.09 1.77
0 -21.06 1.77
0 -21.03 1.77
0 -21 1.75
0 -20.96 1.75
0 -20.93 1.75
0 -20.9 1.75
0 -20.87 1.7
0 -20.83 1.7
0 -20.8 1.68
0 -20.77 1.65
0 -20.74 1.65
0 -20.7 1.68
0 -20.67 1.68
0 -20.64 1.65
0 -20.61 1.61
0 -20.58 1.58
0 -20.54 1.58
0 -20.51 1.58
0 -20.48 1.58
0 -20.44 1.58
0 -20.41 1.58
0 -20.38 1.56
0 -20.35 1.56
0 -20.31 1.56
0 -20.28 1.56
0 -20.24 1.56
0 -20.21 1.56
0 -20.18 1.56
0 -20.15 1.54
0 -20.12 1.51
0 -20.09 1.46
0 -20.05 1.46
0 -20.02 1.46
0 -19.99 1.46
0 -19.95 1.46
0 -19.92 1.44
0 -19.89 1.41
0 -19.86 1.41
0 -19.83 1.37
0 -19.79 1.39
0 -19.76 1.39
0 -19.73 1.39
0 -19.69 1.36
0 -19.66 1.36
0 -19.63 1.36
0 -19.59 1.36
0 -19.56 1.34
0 -19.53 1.34
0 -19.5 1.34
0 -19.46 1.31
0 -19.43 1.31
0 -19.4 1.31
0 -19.36 1.31
0 -19.33 1.31
0 -19.3 1.27
0 -19.27 1.27
0 -19.23 1.27
0 -19.2 1.31
0 -19.16 1.36
0 -19.12 1.39
0 -19.09 1.39
0 -19.06 1.36
0 -19.04 1.15
0 -19.01 1.1
0 -18.98 1.08
0 -18.95 1.05
0 -18.92 1.05
0 -18.88 1.1
0 -18.85 1.08
0 -18.82 1.08
0 -18.78 1.08
0 -18.75 1.1
0 -18.71 1.15
0 -18.67 1.27
0 -18.63 1.24
0 -18.6 1.22
0 -18.57 1.15
0 -18.54 1.12
0 -18.52 1.05
0 -18.48 1.03
0 -18.45 1.01
0 -18.42 0.99
0 -18.39 0.99
0 -18.36 0.96
0 -18.32 0.96
0 -18.29 0.96
0 -18.25 0.96
0 -18.22 0.96
0 -18.19 0.96
0 -18.15 0.96
0 -18.12 0.96
0 -18.09 0.94
0 -18.06 0.94
0 -18.02 0.96
0 -17.99 0.96
0 -17.95 0.96
0 -17.92 0.94
0 -17.89 0.94
0 -17.86 0.89
0 -17.82 0.89
0 -17.79 0.89
0 -17.76 0.92
0 -17.73 0.87
0 -17.69 0.87
0 -17.66 0.87
0 -17.63 0.87
0 -17.59 0.86
0 -17.56 0.84
0 -17.53 0.84
0 -17.49 0.84
0 -17.47 0.76
0 -17.43 0.74
0 -17.4 0.76
0 -17.36 0.79
0 -17.32 0.86
0 -17.29 0.88
0 -17.26 0.86
0 -17.23 0.83
0 -17.2 0.78
0 -17.17 0.74
0 -17.14 0.69
0 -17.1 0.69
0 -17.07 0.69
0 -17.04 0.69
0 -17 0.69
0 -16.97 0.71
0 -16.93 0.74
0 -16.9 0.76
0 -16.8 0.76
0 -16.77 0.71
0 -16.73 0.69
0 -16.71 0.59
0 -16.67 0.59
0 -16.64 0.57
0 -16.61 0.57
0 -16.58 0.57
0 -16.54 0.57
0 -16.51 0.55
0 -16.48 0.55
0 -16.44 0.52
0 -16.41 0.5
0 -16.38 0.5
0 -16.35 0.5
0 -16.32 0.45
0 -16.28 0.45
0 -16.25 0.4
0 -16.22 0.38
0 -16.19 0.33
0 -16.16 0.33
0 -16.12 0.33
0 -16.09 0.35
0 -16.05 0.35
0 -16.02 0.35
0 -15.99 0.33
0 -15.95 0.35
0 -15.92 0.35
0 -15.89 0.25
0 -15.86 0.25
0 -15.83 0.25
0 -15.79 0.25
0 -15.76 0.23
0 -15.73 0.2
0 -15.69 0.23
0 -15.66 0.23
0 -15.63 0.23
0 -15.59 0.2
0 -15.56 0.2
0 -15.53 0.18
0 -15.49 0.18
0 -15.46 0.18
0 -15.43 0.15
0 -15.39 0.15
0 -15.36 0.1
0 -15.33 0.05
0 -15.3 0.03
0 -15.27 0.01
0 -15.24 -0.04
0 -15.2 -0.02
0 -15.17 -0.02
0 -15.14 -0.02
0 -15.1 -0.02
0 -15.07 -0.02
0 -15.04 -0.05
0 -15 -0.05
0 -14.97 -0.05
0 -14.94 -0.05
0 -14.9 -0.05
0 -14.87 -0.02
0 -14.84 -0.05
0 -14.8 -0.05
0 -14.77 -0.02
0 -14.73 -0.02
0 -14.7 -0.02
0 -14.67 -0.02
0 -14.63 -0.04
0 -14.6 -0.07
0 -14.57 -0.07
0 -14.53 -0.07
0 -14.5 -0.07
0 -14.47 -0.07
0 -14.43 -0.09
0 -14.4 -0.09
0 -14.37 -0.09
0 -14.33 -0.09
0 -14.3 -0.16
0 -14.27 -0.16
0 -14.24 -0.16
0 -14.2 -0.16
0 -14.17 -0.19
0 -14.14 -0.19
0 -14.1 -0.16
0 -14.07 -0.14
0 -14.03 -0.14
0 -14 -0.11
0 -13.97 -0.14
0 -13.93 -0.16
0 -13.9 -0.24
0 -13.87 -0.28
0 -13.84 -0.31
0 -13.81 -0.31
0 -13.77 -0.33
0 -13.74 -0.36
0 -13.71 -0.33
0 -13.67 -0.31
0 -13.64 -0.35
0 -13.61 -0.38
0 -13.58 -0.38
0 -13.54 -0.35
0 -13.51 -0.38
0 -13.47 -0.33
0 -13.34 -0.45
0 -13.31 -0.42
0 -13.28 -0.47
0 -13.24 -0.47
0 -13.21 -0.45
0 -13.17 -0.4
0 -13.14 -0.4
0 -13.11 -0.47
0 -13.08 -0.52
0 -13.05 -0.54
0 -13.01 -0.54
0 -12.98 -0.56
0 -12.95 -0.59
0 -12.92 -0.66
0 -12.88 -0.59
0 -12.85 -0.59
0 -12.81 -0.56
0 -12.65 -0.66
0 -12.61 -0.66
0 -12.58 -0.66
0 -12.54 -0.63
0 -12.51 -0.63
0 -12.48 -0.71
0 -12.45 -0.73
0 -12.41 -0.73
0 -12.38 -0.75
0 -12.35 -0.8
0 -12.32 -0.85
0 -12.28 -0.78
0 -12.25 -0.78
0 -12.21 -0.8
0 -12.18 -0.75
0 -12.14 -0.75
0 -12.11 -0.75
0 -12.08 -0.8
0 -12.05 -0.83
0 -12.01 -0.83
0 -11.98 -0.85
0 -11.95 -0.85
0 -11.92 -0.9
0 -11.88 -0.9
0 -11.85 -0.9
0 -11.82 -0.92
0 -11.78 -0.95
0 -11.75 -0.97
0 -11.72 -1.02
0 -11.68 -1
0 -11.65 -0.95
0 -11.62 -1
0 -11.58 -0.98
0 -11.55 -0.98
0 -11.51 -0.98
0 -11.48 -0.95
0 -11.18 -1.05
0 -11.15 -1.05
0 -11.12 -1.13
0 -11.08 -1.18
0 -11.05 -1.2
0 -11.02 -1.2
0 -10.98 -1.21
0 -10.95 -1.23
0 -10.92 -1.28
0 -10.89 -1.28
0 -10.78 -1.23
0 -10.75 -1.21
0 -10.72 -1.26
0 -10.68 -1.31
0 -10.65 -1.31
0 -10.62 -1.31
0 -10.59 -1.38
0 -10.55 -1.41
0 -10.52 -1.43
0 -10.49 -1.43
0 -10.45 -1.41
0 -10.38 -1.41
0 -10.35 -1.41
0 -10.32 -1.41
0 -10.28 -1.46
0 -10.08 -1.53
0 -10.05 -1.53
0 -10.02 -1.53
0 -9.98 -1.56
0 -9.95 -1.53
0 -9.85 -1.58
0 -9.82 -1.63
0 -9.78 -1.58
0 -9.74 -1.56
0 -9.71 -1.63
0 -9.68 -1.65
0 -9.65 -1.68
0 -9.61 -1.68
0 -9.58 -1.7
0 -9.55 -1.75
0 -9.52 -1.75
0 -9.25 -1.8
0 -9.21 -1.77
0 -9.18 -1.75
0 -9.14 -1.75
0 -9.11 -1.77
0 -9.08 -1.82
0 -9.04 -1.82
0 -9.01 -1.82
0 -8.98 -1.89
0 -8.94 -1.89
0 -8.91 -1.89
0 -8.88 -1.89
0 -8.84 -1.92
0 -8.81 -1.94
0 -8.78 -1.94
0 -8.74 -1.94
0 -8.71 -2.02
0 -8.68 -2.02
0 -8.64 -2.02
0 -8.61 -2.04
0 -8.58 -2.09
0 -8.55 -2.11
0 -8.51 -2.09
0 -8.44 -2.02
0 -8.41 -2.04
0 -8.37 -1.97
0 -8.34 -2.07
0 -8.31 -2.09
0 -8.27 -2.11
0 -8.24 -2.11
0 -8.21 -2.16
0 -8.17 -2.21
0 -8.14 -2.29
0 -8.11 -2.21
0 -8.07 -2.21
0 -8.04 -2.19
0 -8 -2.16
0 -7.97 -2.16
0 -7.94 -2.19
0 -7.9 -2.24
0 -7.87 -2.29
0 -7.84 -2.31
0 -7.8 -2.31
0 -7.77 -2.39
0 -7.74 -2.34
0 -7.7 -2.36
0 -7.67 -2.36
0 -7.63 -2.31
0 -7.6 -2.26
0 -7.56 -2.29
0 -7.53 -2.34
0 -7.5 -2.39
0 -7.47 -2.39
0 -7.43 -2.46
0 -7.4 -2.49
0 -7.37 -2.49
0 -7.33 -2.49
0 -7.3 -2.46
0 -7.26 -2.46
0 -7.23 -2.44
0 -7.19 -2.39
0 -7.16 -2.44
0 -7.13 -2.49
0 -7.1 -2.54
0 -7.06 -2.54
0 -7.03 -2.56
0 -6.99 -2.56
0 -6.96 -2.59
0 -6.93 -2.59
0 -6.89 -2.59
0 -6.86 -2.59
0 -6.83 -2.64
0 -6.79 -2.64
0 -6.76 -2.66
0 -6.72 -2.66
0 -6.69 -2.66
0 -6.66 -2.68
0 -6.62 -2.73
0 -6.59 -2.76
0 -6.56 -2.83
0 -6.45 -2.68
0 -6.42 -2.68
0 -6.39 -2.71
0 -6.35 -2.76
0 -6.32 -2.78
0 -6.29 -2.8
0 -6.25 -2.83
0 -6.22 -2.83
0 -6.18 -2.85
0 -6.15 -2.83
0 -6.12 -2.85
0 -6.08 -2.9
0 -6.05 -2.95
0 -6.02 -2.93
0 -5.98 -2.88
0 -5.95 -2.85
0 -5.85 -2.98
0 -5.81 -3
0 -5.78 -2.98
0 -5.74 -3
0 -5.47 -3.01
0 -5.44 -3.03
0 -5.4 -3.08
0 -5.37 -3.11
0 -5.34 -3.16
0 -5.3 -3.18
0 -5.27 -3.18
0 -5.24 -3.16
0 -5.2 -3.18
0 -5.17 -3.24
0 -5.14 -3.26
0 -5.1 -3.26
0 -5.07 -3.29
0 -5.03 -3.31
0 -5 -3.29
0 -4.96 -3.26
0 -4.93 -3.31
0 -4.9 -3.24
0 -4.86 -3.24
0 -4.83 -3.29
0 -4.79 -3.34
0 -4.76 -3.37
0 -4.73 -3.39
0 -4.69 -3.39
0 -4.66 -3.42
0 -4.63 -3.49
0 -4.56 -3.44
0 -4.52 -3.39
0 -4.49 -3.37
0 -4.45 -3.44
0 -4.42 -3.49
0 -4.39 -3.52
0 -4.35 -3.49
0 -4.32 -3.49
0 -4.29 -3.57
0 -4.25 -3.59
0 -4.22 -3.54
0 -3.78 -3.72
0 -3.74 -3.69
0 -3.71 -3.69
0 -3.67 -3.77
0 -3.64 -3.79
0 -3.6 -3.79
0 -3.57 -3.87
0 -3.54 -3.89
0 -3.5 -3.89
0 -3.47 -3.91
0 -3.44 -3.91
0 -3.4 -3.91
0 -3.37 -3.91
0 -3.33 -3.91
0 -3.3 -3.96
0 -3.26 -3.89
0 -2.78 -4.01
0 -2.75 -3.93
0 -2.72 -4.01
0 -2.68 -4.08
0 -2.65 -4.1
0 -2.61 -4.1
0 -2.58 -4.13
0 -2.55 -4.13
0 -2.51 -4.15
0 -2.48 -4.2
0 -2.44 -4.2
0 -2.41 -4.23
0 -2.38 -4.25
0 -2.34 -4.28
0 -2.31 -4.23
0 -2.27 -4.3
0 -2.24 -4.25
0 -2.2 -4.23
0 -2.17 -4.18
0 -2.13 -4.28
0 -2.1 -4.3
0 -2.07 -4.33
0 -2.03 -4.35
0 -2 -4.4
0 -1.96 -4.43
0 -1.48 -4.51
0 -1.45 -4.51
0 -1.42 -4.46
0 -1.38 -4.53
0 -1.35 -4.61
0 -1.31 -4.66
0 -1.28 -4.66
0 -1.24 -4.69
0 -1.21 -4.69
0 -1.18 -4.76
0 -1.14 -4.69
0 -1.11 -4.66
0 -1.07 -4.66
0 -1.04 -4.64
0 -1 -4.69
0 -0.97 -4.74
0 -0.94 -4.79
0 -0.9 -4.82
0 -0.87 -4.82
0 -0.83 -4.79
0 -0.8 -4.79
0 -0.76 -4.82
0 -0.73 -4.82
0 -0.7 -4.84
0 -0.66 -4.87
0 -0.63 -4.92
0 -0.59 -4.9
0 -0.32 -4.9
0 -0.28 -4.9
0 -0.25 -4.95
0 -0.21 -5.02
0 -0.18 -5.08
0 -0.14 -5.08
0 -0.11 -5.1
0 -0.08 -5.13
0 -0.04 -5.15
0 -0.01 -5.18
0 0.03 -5.18
0 0.06 -5.2
0 0.1 -5.2
0 0.13 -5.2
0 0.17 -5.25
0 0.41 -5.25
0 0.44 -5.23
0 0.48 -5.2
0 0.51 -5.3
0 0.55 -5.3
0 0.58 -5.33
0 0.62 -5.36
0 0.65 -5.38
0 0.69 -5.46
0 0.72 -5.48
0 0.76 -5.43
0 0.82 -5.41
0 0.86 -5.38
0 0.89 -5.43
0 0.93 -5.48
0 0.96 -5.51
0 1 -5.53
0 1.03 -5.53
0 1.07 -5.56
0 1.1 -5.58
0 1.14 -5.61
0 1.17 -5.58
0 1.21 -5.51
0 1.24 -5.46
0 1.27 -5.51
0 1.31 -5.56
0 1.34 -5.61
0 1.38 -5.66
0 1.41 -5.66
0 1.45 -5.68
0 1.48 -5.71
0 1.52 -5.73
0 1.55 -5.73
0 1.59 -5.76
0 1.62 -5.76
0 1.66 -5.81
0 1.69 -5.81
0 1.73 -5.86
0 1.76 -5.86
0 1.8 -5.86
0 1.83 -5.86
0 1.87 -5.86
0 1.9 -5.84
0 1.94 -5.91
0 1.97 -5.94
0 2 -5.94
0 2.04 -5.94
0 2.07 -5.94
0 2.11 -5.99
0 2.14 -5.99
0 2.18 -5.99
0 2.21 -6.02
0 2.25 -6.04
0 2.28 -6.02
0 2.32 -6.02
0 2.35 -6.02
0 2.39 -6.04
0 2.42 -6.07
0 2.46 -6.09
0 2.49 -6.12
0 2.53 -6.15
0 2.56 -6.15
0 2.6 -6.17
0 2.63 -6.2
0 2.67 -6.2
0 2.7 -6.2
0 2.73 -6.2
0 2.77 -6.2
0 2.8 -6.22
0 2.84 -6.23
0 2.87 -6.25
0 2.91 -6.28
0 2.94 -6.28
0 2.98 -6.28
0 3.01 -6.3
0 3.05 -6.38
0 3.08 -6.41
0 3.12 -6.43
0 3.15 -6.43
0 3.19 -6.41
0 3.22 -6.41
0 3.26 -6.41
0 3.29 -6.43
0 3.33 -6.46
0 3.36 -6.44
0 3.4 -6.49
0 3.43 -6.56
0 3.47 -6.54
0 3.5 -6.51
0 3.54 -6.54
0 3.57 -6.51
0 3.61 -6.62
0 3.64 -6.64
0 3.68 -6.67
0 3.71 -6.67
0 3.75 -6.67
0 3.78 -6.72
0 3.82 -6.72
0 3.85 -6.7
0 3.89 -6.72
0 3.92 -6.75
0 3.96 -6.77
0 3.99 -6.8
0 4.03 -6.83
0 4.06 -6.83
0 4.1 -6.83
0 4.13 -6.83
0 4.17 -6.88
0 4.2 -6.85
0 4.24 -6.88
0 4.27 -6.91
0 4.31 -6.93
0 4.34 -6.96
0 4.38 -6.96
0 4.41 -6.96
0 4.45 -7.03
0 4.48 -7.03
0 4.52 -7.03
0 4.55 -7.06
0 4.59 -7.06
0 4.62 -7.06
0 4.66 -7.06
0 4.69 -7.06
0 4.73 -7.11
0 4.76 -7.14
0 4.8 -7.14
0 4.83 -7.16
0 4.87 -7.16
0 4.9 -7.16
0 4.94 -7.19
0 4.97 -7.19
0 5.01 -7.19
0 5.04 -7.22
0 5.08 -7.24
0 5.11 -7.27
0 5.15 -7.29
0 5.18 -7.29
0 5.22 -7.29
0 5.25 -7.29
0 5.29 -7.37
0 5.33 -7.37
0 5.36 -7.37
0 5.4 -7.4
0 5.43 -7.42
0 5.47 -7.42
0 5.5 -7.42
0 5.54 -7.42
0 5.57 -7.5
0 5.61 -7.53
0 5.64 -7.53
0 5.68 -7.55
0 5.71 -7.58
0 5.75 -7.58
0 5.78 -7.58
0 5.82 -7.58
0 5.85 -7.6
0 5.89 -7.6
0 5.92 -7.63
0 5.96 -7.63
0 5.99 -7.66
0 6.03 -7.68
0 6.07 -7.71
0 6.1 -7.71
0 6.14 -7.73
0 6.17 -7.71
0 6.21 -7.73
0 6.24 -7.73
0 6.28 -7.76
0 6.31 -7.76
0 6.35 -7.79
0 6.38 -7.81
0 6.42 -7.84
0 6.45 -7.86
0 6.49 -7.86
0 6.52 -7.89
0 6.56 -7.91
0 6.59 -7.91
0 6.63 -7.91
0 6.66 -7.92
0 6.7 -7.99
0 6.74 -7.99
0 6.77 -7.99
0 6.81 -8.04
0 6.84 -8.04
0 6.88 -8.04
0 6.91 -8.07
0 6.95 -8.07
0 6.98 -8.07
0 7.02 -8.07
0 7.05 -8.07
0 7.09 -8.1
0 7.12 -8.12
0 7.16 -8.15
0 7.2 -8.15
0 7.23 -8.15
0 7.27 -8.23
0 7.3 -8.25
0 7.34 -8.25
0 7.37 -8.25
0 7.41 -8.28
0 7.44 -8.28
0 7.48 -8.28
0 7.51 -8.3
0 7.55 -8.38
0 7.59 -8.41
0 7.62 -8.38
0 7.66 -8.41
0 7.69 -8.43
0 7.73 -8.43
0 7.76 -8.43
0 7.8 -8.46
0 7.84 -8.51
0 7.87 -8.54
0 7.91 -8.54
0 7.94 -8.56
0 7.98 -8.56
0 8.01 -8.59
0 8.05 -8.59
0 8.08 -8.59
0 8.12 -8.64
0 8.16 -8.67
0 8.19 -8.67
0 8.23 -8.64
0 8.26 -8.67
0 8.3 -8.67
0 8.33 -8.69
0 8.37 -8.69
0 8.41 -8.75
0 8.44 -8.77
0 8.48 -8.77
0 8.51 -8.8
0 8.55 -8.82
0 8.58 -8.85
0 8.62 -8.88
0 8.66 -8.88
0 8.69 -8.9
0 8.73 -8.93
0 8.76 -8.93
0 8.8 -8.95
0 8.84 -9.01
0 8.87 -9.03
0 8.91 -9.06
0 8.94 -9.03
0 8.98 -9.11
0 9.01 -9.11
0 9.05 -9.14
0 9.09 -9.24
0 9.13 -9.38
0 9.17 -9.46
0 9.21 -9.51
0 9.24 -9.48
0 10.98 -20.03
0 11.02 -20.06
0 11.05 -20.06
0 11.15 -19.83
0 12.3 -19.26
0 12.33 -19.26
0 12.37 -19.26
0 12.41 -19.29
0 12.44 -19.26
0 12.72 -19.03
0 12.76 -19.06
0 12.8 -19.11
0 12.84 -19.14
0 13.14 -18.72
0 13.18 -18.74
0 13.22 -18.72
0 13.74 -18.35
0 13.78 -18.35
0 13.82 -18.35
0 13.88 -18.15
0 14.44 -17.8
0 14.48 -17.8
0 15.22 -16.91
0 15.26 -16.91
0 15.29 -16.91
0 15.33 -16.91
0 15.36 -16.79
0 15.39 -16.74
0 15.43 -16.71
0 15.46 -16.74
0 15.63 -16.54
0 15.67 -16.54
0 15.73 -16.35
0 15.77 -16.35
0 15.8 -16.35
0 15.83 -16.29
0 15.87 -16.24
0 15.9 -16.24
0 16.07 -16.02
0 16.1 -15.97
0 16.14 -15.94
0 16.17 -15.91
0 16.2 -15.86
0 16.24 -15.86
0 16.28 -15.86
0 16.31 -15.83
0 16.35 -15.83
0 16.38 -15.86
0 17.58 -13.53
0 17.62 -13.51
0 17.65 -13.48
0 17.68 -13.43
0 18.2 -9.46
0 18.23 -9.44
0 18.41 -8.16
0 18.44 -8.14
0 18.47 -8.06
0 18.9 -6.44
0 18.93 -6.46
0 18.96 -6.39
0 19.48 -5.19
0 19.69 -4.76
0 19.72 -4.73
0 19.75 -4.68
0 19.78 -4.63
0 19.81 -4.61
0 19.84 -4.58
0 19.97 -4.46
0 20.01 -4.46
0 20.04 -4.48
0 20.07 -4.43
0 20.22 -4.19
0 21.19 -3.14
0 21.23 -3.16
0 21.26 -3.16
0 21.29 -3.14
0 21.32 -3.11
0 21.41 -2.94
0 22.13 -2.32
0 22.16 -2.25
0 22.2 -2.27
0 22.24 -2.32
0 22.27 -2.3
0 22.3 -2.28
0 22.45 -2.13
0 22.49 -2.13
0 23.06 -1.41
0 23.09 -1.38
0 23.12 -1.31
0 23.15 -1.29
0 23.19 -1.29
0 23.22 -1.26
0 23.25 -1.24
0 23.58 -0.87
0 23.62 -0.87
0 24.51 0.2
0 24.55 0.2
0 24.57 0.3
0 24.95 0.8
0 24.98 0.82
0 25.02 0.82
0 25.32 1.11
0 25.35 1.11
0 25.52 1.39
0 25.58 1.49
0 25.61 1.46
0 25.65 1.46
0 25.68 1.46
0 25.72 1.44
0 25.75 1.39
0 25.79 1.63
0 25.82 1.65
0 25.86 1.67
0 26.15 2.03
0 26.18 2
0 26.22 2
0 26.35 2.02
0 26.38 2.02
0 26.42 2.02
0 26.45 2.02
0 26.56 2.21
0 26.59 2.23
0 26.62 2.23
0 27.14 2.93
0 27.17 2.93
0 27.21 2.93
0 27.24 2.93
